<svg xmlns:dc="http://purl.org/dc/elements/1.1/" xmlns:cc="http://creativecommons.org/ns#" xmlns:rdf="http://www.w3.org/1999/02/22-rdf-syntax-ns#" xmlns:svg="http://www.w3.org/2000/svg" xmlns="http://www.w3.org/2000/svg" xmlns:sodipodi="http://sodipodi.sourceforge.net/DTD/sodipodi-0.dtd" xmlns:inkscape="http://www.inkscape.org/namespaces/inkscape" viewBox="0 0 512 512" version="1.1" id="svg4698" sodipodi:docname="filters.svg" inkscape:version="0.92.4 (f8dce91, 2019-08-02)"><metadata id="metadata4704"><rdf:RDF><cc:Work rdf:about=""><dc:format>image/svg+xml</dc:format><dc:type rdf:resource="http://purl.org/dc/dcmitype/StillImage"/><dc:title/></cc:Work></rdf:RDF></metadata><defs id="defs4702"/><sodipodi:namedview pagecolor="#ffffff" bordercolor="#666666" borderopacity="1" objecttolerance="10" gridtolerance="10" guidetolerance="10" inkscape:pageopacity="0" inkscape:pageshadow="2" inkscape:window-width="1748" inkscape:window-height="748" id="namedview4700" showgrid="false" inkscape:zoom="0.95569901" inkscape:cx="120.84666" inkscape:cy="238.18272" inkscape:window-x="0" inkscape:window-y="28" inkscape:window-maximized="0" inkscape:current-layer="svg4698"/><path d="M299.3 376c6.2-14.1 20.3-24 36.7-24s30.5 9.9 36.7 24H448c8.8 0 16 7.2 16 16s-7.2 16-16 16h-75.3c-6.2 14.1-20.3 24-36.7 24s-30.5-9.9-36.7-24H64c-8.8 0-16-7.2-16-16s7.2-16 16-16h235.3zM139.3 240c6.2-14.1 20.3-24 36.7-24s30.5 9.9 36.7 24H448c8.8 0 16 7.2 16 16s-7.2 16-16 16H212.7c-6.2 14.1-20.3 24-36.7 24s-30.5-9.9-36.7-24H64c-8.8 0-16-7.2-16-16s7.2-16 16-16h75.3zM299.3 104c6.2-14.1 20.3-24 36.7-24s30.5 9.9 36.7 24H448c8.8 0 16 7.2 16 16s-7.2 16-16 16h-75.3c-6.2 14.1-20.3 24-36.7 24s-30.5-9.9-36.7-24H64c-8.8 0-16-7.2-16-16s7.2-16 16-16h235.3z" id="path4696" style="fill:#f6ffff;fill-opacity:1"/></svg>