<svg xmlns="http://www.w3.org/2000/svg" xmlns:xlink="http://www.w3.org/1999/xlink" version="1.1" id="Ebene_1" x="0px" y="0px" viewBox="0 0 30 30" enable-background="new 0 0 30 30" xml:space="preserve"><g><path fill="currentColor" d="M15.025,3.961c1.95,0.005,3.53,1.581,3.524,3.514c-0.005,1.941-1.59,3.495-3.559,3.488   c-1.946-0.005-3.519-1.57-3.516-3.5C11.477,5.521,13.064,3.955,15.025,3.961z M18.76,16.074c0.391-0.776,0.76-1.478,1.1-2.218   c0.85-1.844,1.518-3.768,1.668-5.814c0.039-0.553,0.033-1.116-0.057-1.665c-0.197-1.199-0.688-2.271-1.486-3.188   c-1.062-1.216-2.397-1.978-4.002-2.22c-0.266-0.041-0.392-0.037-0.789-0.066c-0.112,0-0.232-0.005-0.345-0.005   c-0.131,0.008-0.103,0.002-0.154,0.005c-1.64,0.086-3.062,0.701-4.242,1.839c-1.204,1.159-1.857,2.589-1.968,4.25   C8.427,7.856,8.532,8.717,8.708,9.563c0.33,1.585,0.901,3.134,1.593,4.593c0.302,0.636,0.628,1.141,0.968,1.917l0.667,1.166   c0.648,1.166,1.346,2.092,2.085,3.118c0.319,0.443,0.651,0.854,0.979,1.293c0.019-0.015,0.024,0.018,0.027,0.013   c1.11-1.429,2.14-2.87,3.062-4.424L18.76,16.074z"/><line fill="currentColor" stroke="#FFFFFF" stroke-width="1.6549" stroke-miterlimit="10" x1="22.268" y1="17.57" x2="18.15" y2="28.836"/><path fill="currentColor" stroke="#FFFFFF" stroke-width="1.6549" stroke-miterlimit="10" d="M2.666,22.632c0,0,2.349-1.916,7.346-0.673   c4.997,1.243,7.058,2.604,10.198,1.243"/><g><path fill="currentColor" d="M25.217,18.736l2.18,8.932H2.623l2.179-8.932H25.217 M25.393,16.404H4.625    c-0.91,0-1.831,0.724-2.047,1.606L0.046,28.393C-0.17,29.275,0.398,30,1.309,30H28.71c0.91,0,1.479-0.725,1.263-1.607    l-2.533-10.381C27.225,17.128,26.303,16.404,25.393,16.404L25.393,16.404z"/></g></g></svg>