<svg xmlns:dc="http://purl.org/dc/elements/1.1/" xmlns:cc="http://creativecommons.org/ns#" xmlns:rdf="http://www.w3.org/1999/02/22-rdf-syntax-ns#" xmlns:svg="http://www.w3.org/2000/svg" xmlns="http://www.w3.org/2000/svg" xmlns:sodipodi="http://sodipodi.sourceforge.net/DTD/sodipodi-0.dtd" xmlns:inkscape="http://www.inkscape.org/namespaces/inkscape" viewBox="0 0 512 512" version="1.1" id="svg1537" sodipodi:docname="_ionicons_svg_logo-euro.svg" inkscape:version="0.92.4 (f8dce91, 2019-08-02)"><metadata id="metadata1543"><rdf:RDF><cc:Work rdf:about=""><dc:format>image/svg+xml</dc:format><dc:type rdf:resource="http://purl.org/dc/dcmitype/StillImage"/></cc:Work></rdf:RDF></metadata><defs id="defs1541"/><sodipodi:namedview pagecolor="#ffffff" bordercolor="#666666" borderopacity="1" objecttolerance="10" gridtolerance="10" guidetolerance="10" inkscape:pageopacity="0" inkscape:pageshadow="2" inkscape:window-width="728" inkscape:window-height="480" id="namedview1539" showgrid="false" inkscape:zoom="0.4609375" inkscape:cx="256" inkscape:cy="256" inkscape:window-x="0" inkscape:window-y="28" inkscape:window-maximized="0" inkscape:current-layer="svg1537"/><path d="M234 272v-48h131.094l7.149-48H234v-1.83c0-35.92 14.975-58.086 79.25-58.086 26.264 0 55.867 2.498 93.189 8.742L416 59.866C377.988 51.123 345.306 48 310.057 48 195.326 48 146 89.225 146 165.43V176H96v48h50v48H96v48h50v26.57C146 422.774 195.297 464 310.027 464c35.25 0 67.848-3.123 105.859-11.866l-9.619-64.96c-37.322 6.244-66.781 8.742-93.045 8.742-64.276 0-79.223-18.739-79.223-63.086V320h116.795l7.148-48H234z" id="path1535" style="fill:#ffffff"/></svg>