<svg xmlns:dc="http://purl.org/dc/elements/1.1/" xmlns:cc="http://creativecommons.org/ns#" xmlns:rdf="http://www.w3.org/1999/02/22-rdf-syntax-ns#" xmlns:svg="http://www.w3.org/2000/svg" xmlns="http://www.w3.org/2000/svg" xmlns:sodipodi="http://sodipodi.sourceforge.net/DTD/sodipodi-0.dtd" xmlns:inkscape="http://www.inkscape.org/namespaces/inkscape" viewBox="0 0 512 512" version="1.1" id="svg1006" sodipodi:docname="reset.svg" inkscape:version="0.92.4 (f8dce91, 2019-08-02)"><metadata id="metadata1012"><rdf:RDF><cc:Work rdf:about=""><dc:format>image/svg+xml</dc:format><dc:type rdf:resource="http://purl.org/dc/dcmitype/StillImage"/><dc:title/></cc:Work></rdf:RDF></metadata><defs id="defs1010"/><sodipodi:namedview pagecolor="#ffffff" bordercolor="#666666" borderopacity="1" objecttolerance="10" gridtolerance="10" guidetolerance="10" inkscape:pageopacity="0" inkscape:pageshadow="2" inkscape:window-width="1920" inkscape:window-height="1021" id="namedview1008" showgrid="false" inkscape:zoom="0.82226563" inkscape:cx="103.43553" inkscape:cy="124.09528" inkscape:window-x="0" inkscape:window-y="28" inkscape:window-maximized="1" inkscape:current-layer="svg1006"/><path d="M433 288.8c-7.7 0-14.3 5.9-14.9 13.6-6.9 83.1-76.8 147.9-161.8 147.9-89.5 0-162.4-72.4-162.4-161.4 0-87.6 70.6-159.2 158.2-161.4 2.3-.1 4.1 1.7 4.1 4v50.3c0 12.6 13.9 20.2 24.6 13.5L377 128c10-6.3 10-20.8 0-27.1l-96.1-66.4c-10.7-6.7-24.6.9-24.6 13.5v45.7c0 2.2-1.7 4-3.9 4C148 99.8 64 184.6 64 288.9 64 394.5 150.1 480 256.3 480c100.8 0 183.4-76.7 191.6-175.1.8-8.7-6.2-16.1-14.9-16.1z" id="path1004" style="fill:#ffffff;fill-opacity:1"/></svg>