<svg xmlns:dc="http://purl.org/dc/elements/1.1/" xmlns:cc="http://creativecommons.org/ns#" xmlns:rdf="http://www.w3.org/1999/02/22-rdf-syntax-ns#" xmlns:svg="http://www.w3.org/2000/svg" xmlns="http://www.w3.org/2000/svg" xmlns:sodipodi="http://sodipodi.sourceforge.net/DTD/sodipodi-0.dtd" xmlns:inkscape="http://www.inkscape.org/namespaces/inkscape" version="1.1" id="Ebene_1" x="0px" y="0px" viewBox="0 0 30 30" enable-background="new 0 0 30 30" xml:space="preserve" sodipodi:docname="transfer_white.svg" inkscape:version="0.92.4 (f8dce91, 2019-08-02)"><metadata id="metadata1167"><rdf:RDF><cc:Work rdf:about=""><dc:format>image/svg+xml</dc:format><dc:type rdf:resource="http://purl.org/dc/dcmitype/StillImage"/><dc:title/></cc:Work></rdf:RDF></metadata><defs id="defs1165"/><sodipodi:namedview pagecolor="#ffffff" bordercolor="#666666" borderopacity="1" objecttolerance="10" gridtolerance="10" guidetolerance="10" inkscape:pageopacity="0" inkscape:pageshadow="2" inkscape:window-width="1920" inkscape:window-height="1021" id="namedview1163" showgrid="false" inkscape:zoom="7.8666667" inkscape:cx="-45" inkscape:cy="-10.423729" inkscape:window-x="0" inkscape:window-y="28" inkscape:window-maximized="1" inkscape:current-layer="g12"/><g id="g10" transform="matrix(0.58541066,0,0,-0.58541066,2.5997967,57.707359)"><g id="g12" transform="scale(0.1)"><path d="m 24.709999,780.051 v 82.392 h 24.8203 v -62.975 h 28.3866 v -19.417 h -53.2069" style="fill:#ffffff;fill-opacity:1;fill-rule:nonzero;stroke:none" id="path14" inkscape:connector-curvature="0"/><path d="m 140.4329,820.785 c 0,6.788 -1.305,12.128 -3.906,16.028 -2.602,3.91 -6.165,5.86 -10.684,5.86 -4.945,0 -8.793,-1.87 -11.555,-5.63 -2.758,-3.75 -4.133,-9.05 -4.133,-15.914 0,-6.703 1.368,-11.93 4.106,-15.684 2.738,-3.754 6.469,-5.629 11.176,-5.629 2.871,0 5.461,0.84 7.758,2.524 2.3,1.687 4.082,4.101 5.343,7.242 1.266,3.136 1.895,6.879 1.895,11.203 z m 26.324,0.691 c 0,-8.277 -1.789,-15.679 -5.352,-22.207 -3.558,-6.535 -8.535,-11.613 -14.937,-15.23 -6.398,-3.621 -13.559,-5.43 -21.492,-5.43 -7.739,0 -14.774,1.758 -21.11,5.258 -6.343001,3.508 -11.273001,8.43 -14.800001,14.769 -3.52,6.34 -5.286,13.512 -5.286,21.516 0,8.391 1.786,15.941 5.344,22.641 3.559,6.7 8.559,11.89 14.996001,15.54 6.434,3.66 13.754,5.49 21.953,5.49 7.891,0 14.946,-1.75 21.172,-5.26 6.227,-3.5 11.035,-8.5 14.418,-15 3.395,-6.49 5.094,-13.86 5.094,-22.087" style="fill:#ffffff;fill-opacity:1;fill-rule:nonzero;stroke:none" id="path16" inkscape:connector-curvature="0"/><path d="m 239.7299,782.285 c -6.828,-2.449 -14.692,-3.676 -23.621,-3.676 -8.766,0 -16.336,1.68 -22.692,5.027 -6.363,3.356 -11.219,8.122 -14.57,14.309 -3.356,6.191 -5.027,13.32 -5.027,21.406 0,8.692 1.875,16.432 5.632,23.212 3.754,6.78 9.059,12.02 15.91,15.71 6.864,3.7 14.754,5.55 23.68,5.55 7.121,0 14.02,-0.86 20.688,-2.58 v -22.93 c -2.305,1.37 -5.039,2.45 -8.223,3.21 -3.176,0.77 -6.395,1.15 -9.652,1.15 -6.739,0 -12.059,-1.93 -15.946,-5.8 -3.89,-3.87 -5.828,-9.12 -5.828,-15.744 0,-6.586 1.938,-11.789 5.828,-15.598 3.887,-3.813 9.09,-5.715 15.602,-5.715 6.012,0 12.086,1.531 18.219,4.594 v -22.125" style="fill:#ffffff;fill-opacity:1;fill-rule:nonzero;stroke:none" id="path18" inkscape:connector-curvature="0"/><path d="m 288.5699,844.513 h -0.579 c -0.074,-0.92 -0.347,-2.43 -0.8,-4.54 -0.465,-2.1 -2.778,-11.15 -6.954,-27.122 h 15.743 l -5.743,22.412 c -0.808,3.3 -1.363,6.38 -1.667,9.25 z m 15.628,-64.462 -3.625,15.164 h -24.589 l -3.907,-15.164 h -26.836 l 28.383,82.392 h 30.805 l 26.719,-82.392 h -26.95" style="fill:#ffffff;fill-opacity:1;fill-rule:nonzero;stroke:none" id="path20" inkscape:connector-curvature="0"/><path d="m 382.4599,843.023 v -62.972 h -24.937 v 62.972 h -23.043 v 19.42 h 71.304 v -19.42 h -23.324" style="fill:#ffffff;fill-opacity:1;fill-rule:nonzero;stroke:none" id="path22" inkscape:connector-curvature="0"/><path d="m 440.03794,790.273 c 0,-3.484 -1.226,-6.297 -3.683,-8.441 -2.45,-2.149 -5.84,-3.223 -10.16404,-3.223 -3.954,0 -7.18,1.121 -9.688,3.359 -2.512,2.247 -3.766,5.016 -3.766,8.305 0,3.371 1.235,6.098 3.711,8.188 2.469,2.086 5.789,3.132 9.965,3.132 4.06304,0 7.34404,-1.046 9.85604,-3.132 2.511,-2.09 3.769,-4.817 3.769,-8.188" style="fill:#ffffff;fill-opacity:1;fill-rule:nonzero;stroke:none" id="path24" inkscape:connector-curvature="0"/><path d="m 24.709999,672.172 v 82.398 h 51.3089 v -19.418 h -26.4886 V 723.14 h 24.8866 v -19.425 h -24.8866 v -12.118 h 28.3866 v -19.425 h -53.2069" style="fill:#ffffff;fill-opacity:1;fill-rule:nonzero;stroke:none" id="path26" inkscape:connector-curvature="0"/><path d="m 136.5849,672.172 h -27.867 L 82.111899,754.57 H 108.8309 l 12.582,-50.734 c 0.996,-4.098 1.555,-7.164 1.672,-9.192 h 0.57 c 0.231,2.563 0.825,5.746 1.782,9.535 l 12.238,50.391 h 25.859 l -26.949,-82.398" style="fill:#ffffff;fill-opacity:1;fill-rule:nonzero;stroke:none" id="path28" inkscape:connector-curvature="0"/><path d="m 172.2689,672.172 v 82.398 h 51.312 v -19.418 h -26.488 V 723.14 h 24.879 v -19.425 h -24.879 v -12.118 h 28.383 v -19.425 h -53.207" style="fill:#ffffff;fill-opacity:1;fill-rule:nonzero;stroke:none" id="path30" inkscape:connector-curvature="0"/><path d="m 294.7729,672.172 -29.078,39.761 c -2.293,3.145 -4.172,5.977 -5.629,8.508 h -0.231 c 0.231,-4.062 0.348,-8.617 0.348,-13.68 v -34.589 h -22.988 v 82.398 h 23.449 l 27.871,-37.809 c 0.34,-0.496 0.762,-1.085 1.258,-1.781 0.504,-0.687 0.996,-1.394 1.496,-2.125 0.496,-0.726 0.965,-1.433 1.41,-2.129 0.437,-0.687 0.769,-1.297 1,-1.836 h 0.234 c -0.234,1.688 -0.343,4.598 -0.343,8.735 v 36.945 h 22.98 v -82.398 h -21.777" style="fill:#ffffff;fill-opacity:1;fill-rule:nonzero;stroke:none" id="path32" inkscape:connector-curvature="0"/><path d="m 374.4169,735.152 v -62.98 h -24.941 v 62.98 h -23.043 v 19.418 h 71.308 v -19.418 h -23.324" style="fill:#ffffff;fill-opacity:1;fill-rule:nonzero;stroke:none" id="path34" inkscape:connector-curvature="0"/><path d="m 464.85894,697.109 c 0,-5.473 -1.465,-10.242 -4.399,-14.305 -2.933,-4.058 -7.039,-7.086 -12.32,-9.078 -5.289,-1.992 -11.653,-2.988 -19.078,-2.988 -8.61704,0 -16.51604,1.453 -23.67604,4.371 v 22.582 c 3.445,-2.535 7.258,-4.57 11.434,-6.125 4.175,-1.551 8.066,-2.32 11.664,-2.32 2.71804,0 4.82404,0.48 6.32004,1.465 1.492,0.972 2.246,2.402 2.246,4.277 0,1.336 -0.375,2.516 -1.125,3.531 -0.746,1.012 -1.879,1.965 -3.387,2.844 -1.515,0.879 -4.32004,2.086 -8.41804,3.617 -13.254,5.098 -19.883,13.336 -19.883,24.711 0,7.973 3.028,14.332 9.079,19.11 6.046,4.769 14.171,7.152 24.35904,7.152 2.875,0 5.516,-0.117 7.934,-0.348 2.414,-0.226 4.605,-0.512 6.578,-0.859 1.976,-0.348 4.742,-0.996 8.304,-1.957 v -20.973 c -6.933,3.789 -13.754,5.688 -20.453,5.688 -2.761,0 -4.984,-0.516 -6.672,-1.551 -1.683,-1.031 -2.527,-2.449 -2.527,-4.254 0,-1.723 0.684,-3.148 2.039,-4.277 1.363,-1.133 4.203,-2.598 8.535,-4.399 8.547,-3.441 14.582,-7.219 18.129,-11.312 3.543,-4.102 5.317,-8.965 5.317,-14.602" style="fill:#ffffff;fill-opacity:1;fill-rule:nonzero;stroke:none" id="path36" inkscape:connector-curvature="0"/><path d="m 82.287899,564.301 -29.0779,39.761 c -2.2968,3.145 -4.1718,5.977 -5.6289,8.508 h -0.2304 c 0.2304,-4.062 0.3476,-8.625 0.3476,-13.68 v -34.589 h -22.9883 v 82.398 h 23.4414 l 27.8675,-37.809 c 0.347,-0.496 0.769,-1.086 1.265,-1.781 0.496,-0.687 1,-1.398 1.493,-2.121 0.503,-0.734 0.972,-1.437 1.406,-2.133 0.445,-0.687 0.781,-1.301 1.012,-1.84 h 0.23 c -0.23,1.688 -0.344,4.602 -0.344,8.739 v 36.945 H 104.0619 V 564.301 H 82.287899" style="fill:#ffffff;fill-opacity:1;fill-rule:nonzero;stroke:none" id="path38" inkscape:connector-curvature="0"/><path d="m 120.2689,564.301 v 82.398 h 51.304 v -19.418 h -26.48 v -12.012 h 24.875 v -19.426 h -24.875 v -12.117 h 28.383 v -19.425 h -53.207" style="fill:#ffffff;fill-opacity:1;fill-rule:nonzero;stroke:none" id="path40" inkscape:connector-curvature="0"/><path d="m 279.0299,564.301 h -26.375 l -11.429,46.945 c -0.348,1.344 -0.735,4.676 -1.156,10 h -0.227 c -0.578,-4.715 -1.133,-8.043 -1.664,-10 l -12.356,-46.945 h -27.929 l -19.653,82.398 h 27.243 l 6.89,-48.5 c 0.113,-0.609 0.289,-2.395 0.52,-5.344 l 0.347,-4.765 h 0.34 c 0.078,0.996 0.309,2.691 0.692,5.086 0.382,2.39 0.746,4.183 1.089,5.371 l 12.704,48.152 h 27.062 l 10.567,-48.836 0.753,-4.891 0.571,-4.761 h 0.23 l 0.176,2.004 0.742,7.984 7.184,48.5 h 24.48 l -20.801,-82.398" style="fill:#ffffff;fill-opacity:1;fill-rule:nonzero;stroke:none" id="path42" inkscape:connector-curvature="0"/><path d="m 366.3699,589.238 c 0,-5.477 -1.468,-10.246 -4.398,-14.305 -2.93,-4.062 -7.035,-7.09 -12.324,-9.078 -5.286,-1.992 -11.641,-2.988 -19.075,-2.988 -8.621,0 -16.507,1.457 -23.675,4.363 v 22.578 c 3.449,-2.523 7.261,-4.558 11.433,-6.109 4.176,-1.555 8.071,-2.336 11.668,-2.336 2.719,0 4.828,0.492 6.321,1.469 1.496,0.976 2.238,2.41 2.238,4.277 0,1.344 -0.375,2.524 -1.117,3.539 -0.754,1.012 -1.879,1.961 -3.395,2.844 -1.516,0.879 -4.32,2.086 -8.418,3.617 -13.254,5.098 -19.879,13.336 -19.879,24.715 0,7.961 3.024,14.328 9.078,19.098 6.055,4.773 14.176,7.16 24.368,7.16 2.871,0 5.515,-0.117 7.925,-0.348 2.414,-0.234 4.606,-0.516 6.578,-0.859 1.973,-0.344 4.743,-1 8.301,-1.957 v -20.973 c -6.933,3.789 -13.75,5.688 -20.453,5.688 -2.758,0 -4.976,-0.516 -6.664,-1.551 -1.687,-1.031 -2.523,-2.453 -2.523,-4.254 0,-1.723 0.671,-3.149 2.035,-4.281 1.355,-1.129 4.203,-2.594 8.535,-4.395 8.539,-3.441 14.586,-7.219 18.125,-11.316 3.543,-4.106 5.316,-8.961 5.316,-14.598" style="fill:#ffffff;fill-opacity:1;fill-rule:nonzero;stroke:none" id="path44" inkscape:connector-curvature="0"/><path d="M 4.100699,834.263 V 818.41 h -21.4727 v -92.336 h 21.4727 v -15.672 h -21.4727 V 609.211 h 21.4727 v -16.356 h -38.8438 v 241.568 l 38.8438,-0.16" style="fill:#ffffff;fill-opacity:1;fill-rule:nonzero;stroke:none" id="path56" inkscape:connector-curvature="0"/></g></g></svg>