<?xml version="1.0" encoding="utf-8"?>
<!-- Generator: Adobe Illustrator 24.0.1, SVG Export Plug-In . SVG Version: 6.00 Build 0)  -->
<svg version="1.1" id="appongo_x5F_logo_xA0_Bild_1_"
	 xmlns="http://www.w3.org/2000/svg" xmlns:xlink="http://www.w3.org/1999/xlink" x="0px" y="0px" viewBox="0 0 339 110"
	 style="enable-background:new 0 0 339 110;" xml:space="preserve">
<style type="text/css">
	.st0{fill:#FFFFFF;}
	.st1{fill:#AFCA0B;}
	.st2{fill:#0C65AF;}
</style>
<path class="st0" d="M170.1,73.5v-7.7l22-27.4h-19.5v-7.1h30.6v6.6l-22.9,28.5h23.8v7.1C204.1,73.5,170.1,73.5,170.1,73.5z"/>
<path class="st0" d="M207.6,73.5v-7.7l22-27.4h-19.5v-7.1h30.6v6.6l-22.9,28.5h23.8v7.1C241.6,73.5,207.6,73.5,207.6,73.5z"/>
<g>
	<path class="st1" d="M97.1,90.4l2.6-0.3c0.2,0.9,0.5,1.5,0.9,1.9c0.5,0.4,1.1,0.6,1.9,0.6c0.9,0,1.5-0.2,1.9-0.5
		c0.4-0.4,0.7-0.8,0.7-1.3c0-0.3-0.1-0.6-0.3-0.8c-0.2-0.2-0.5-0.4-1-0.6c-0.3-0.1-1-0.3-2.1-0.6c-1.4-0.4-2.4-0.8-3-1.3
		C98,86.9,97.6,86,97.6,85c0-0.7,0.2-1.3,0.6-1.9c0.4-0.6,0.9-1,1.6-1.3c0.7-0.3,1.6-0.5,2.6-0.5c1.6,0,2.9,0.4,3.7,1.1
		c0.8,0.7,1.3,1.7,1.3,2.9l-2.7,0.1c-0.1-0.7-0.4-1.2-0.7-1.5c-0.4-0.3-0.9-0.4-1.7-0.4c-0.8,0-1.4,0.2-1.8,0.5
		c-0.3,0.2-0.4,0.5-0.4,0.8c0,0.3,0.1,0.6,0.4,0.8c0.3,0.3,1.1,0.6,2.4,0.9c1.3,0.3,2.2,0.6,2.9,0.9c0.6,0.3,1.1,0.8,1.5,1.3
		c0.3,0.6,0.5,1.3,0.5,2.1c0,0.8-0.2,1.5-0.6,2.1c-0.4,0.7-1,1.1-1.8,1.5c-0.8,0.3-1.7,0.5-2.9,0.5c-1.7,0-2.9-0.4-3.8-1.2
		C97.8,93,97.3,91.9,97.1,90.4z"/>
	<path class="st1" d="M112.5,94.7V81.5h9.7v2.2h-7.1v2.9h6.6v2.2h-6.6v3.6h7.3v2.2L112.5,94.7L112.5,94.7z"/>
	<path class="st1" d="M127.3,94.7V81.5h2.7v5.2h5.2v-5.2h2.7v13.1h-2.7v-5.7h-5.2v5.7L127.3,94.7L127.3,94.7z"/>
	<path class="st1" d="M143.1,94.7V81.5h9.7v2.2h-7.1v2.9h6.6v2.2h-6.6v3.6h7.3v2.2L143.1,94.7L143.1,94.7z"/>
	<path class="st1" d="M157.9,94.7V81.5h2.6l5.4,8.8v-8.8h2.5v13.1h-2.7l-5.3-8.6v8.6L157.9,94.7L157.9,94.7z"/>
	<path class="st1" d="M183.2,94.7l-3.1-13.1h2.7l2,9l2.4-9h3.2l2.3,9.2l2-9.2h2.7l-3.2,13.1h-2.8l-2.6-9.8l-2.6,9.8H183.2z"/>
	<path class="st1" d="M212.5,94.7h-2.9l-1.1-3h-5.3l-1.1,3h-2.8l5.1-13.1h2.8L212.5,94.7z M207.6,89.5l-1.8-4.9l-1.8,4.9H207.6z"/>
	<path class="st1" d="M215.5,90.4l2.6-0.3c0.2,0.9,0.5,1.5,0.9,1.9c0.5,0.4,1.1,0.6,1.9,0.6c0.9,0,1.5-0.2,1.9-0.5
		c0.4-0.4,0.6-0.8,0.6-1.3c0-0.3-0.1-0.6-0.3-0.8s-0.5-0.4-1-0.6c-0.3-0.1-1-0.3-2.1-0.6c-1.4-0.4-2.4-0.8-3-1.3
		c-0.8-0.7-1.2-1.6-1.2-2.6c0-0.7,0.2-1.3,0.6-1.9c0.4-0.6,0.9-1,1.6-1.3c0.7-0.3,1.6-0.5,2.6-0.5c1.6,0,2.9,0.4,3.7,1.1
		c0.8,0.7,1.3,1.7,1.3,2.9l-2.7,0.1c-0.1-0.7-0.4-1.2-0.7-1.5c-0.4-0.3-0.9-0.4-1.7-0.4c-0.8,0-1.4,0.2-1.8,0.5
		c-0.3,0.2-0.4,0.5-0.4,0.8c0,0.3,0.1,0.6,0.4,0.8c0.3,0.3,1.1,0.6,2.4,0.9c1.3,0.3,2.2,0.6,2.9,0.9c0.6,0.3,1.1,0.8,1.5,1.3
		c0.3,0.6,0.5,1.3,0.5,2.1c0,0.8-0.2,1.5-0.6,2.1c-0.4,0.7-1,1.1-1.8,1.5c-0.8,0.3-1.7,0.5-2.9,0.5c-1.7,0-2.9-0.4-3.8-1.2
		S215.7,91.9,215.5,90.4z"/>
	<path class="st1" d="M250.5,94.7h-2.9l-1.1-3h-5.3l-1.1,3h-2.8l5.1-13.1h2.8L250.5,94.7z M245.7,89.5l-1.8-4.9l-1.8,4.9H245.7z"/>
	<path class="st1" d="M254.6,81.5h5.3c1,0,1.8,0,2.3,0.1c0.5,0.1,1,0.3,1.4,0.5c0.4,0.3,0.7,0.6,1,1.1c0.3,0.5,0.4,1,0.4,1.5
		c0,0.6-0.2,1.2-0.5,1.7c-0.3,0.5-0.8,0.9-1.4,1.2c0.8,0.2,1.4,0.6,1.8,1.2c0.4,0.6,0.6,1.2,0.6,2c0,0.6-0.1,1.2-0.4,1.7
		c-0.3,0.6-0.7,1-1.1,1.4c-0.5,0.3-1.1,0.5-1.8,0.6c-0.4,0-1.5,0.1-3.2,0.1h-4.5V81.5z M257.2,83.7v3h1.7c1,0,1.7,0,1.9,0
		c0.5-0.1,0.8-0.2,1.1-0.5c0.3-0.3,0.4-0.6,0.4-1c0-0.4-0.1-0.7-0.3-1c-0.2-0.3-0.6-0.4-1-0.5c-0.3,0-1,0-2.3,0
		C258.7,83.7,257.2,83.7,257.2,83.7z M257.2,88.9v3.5h2.5c1,0,1.6,0,1.8-0.1c0.4-0.1,0.7-0.2,1-0.5c0.2-0.3,0.4-0.6,0.4-1.1
		c0-0.4-0.1-0.7-0.3-1c-0.2-0.3-0.5-0.5-0.8-0.6c-0.4-0.1-1.1-0.2-2.4-0.2L257.2,88.9L257.2,88.9z"/>
	<path class="st1" d="M276.2,89.8v-2.2h5.7v5.2c-0.6,0.5-1.4,1-2.4,1.4c-1.1,0.4-2.1,0.6-3.2,0.6c-1.4,0-2.6-0.3-3.6-0.9
		c-1-0.6-1.8-1.4-2.3-2.5c-0.5-1.1-0.8-2.2-0.8-3.5c0-1.4,0.3-2.6,0.9-3.6c0.6-1.1,1.4-1.9,2.5-2.4c0.8-0.4,1.9-0.7,3.1-0.7
		c1.6,0,2.9,0.3,3.8,1c0.9,0.7,1.5,1.6,1.8,2.8l-2.6,0.5c-0.2-0.6-0.5-1.2-1-1.5c-0.5-0.4-1.1-0.6-1.9-0.6c-1.2,0-2.1,0.4-2.8,1.1
		c-0.7,0.7-1,1.8-1,3.3c0,1.6,0.3,2.7,1,3.5c0.7,0.8,1.6,1.2,2.7,1.2c0.6,0,1.1-0.1,1.7-0.3c0.6-0.2,1-0.5,1.4-0.8v-1.7H276.2z"/>
	<path class="st1" d="M287,94.7V81.5h9.7v2.2h-7.1v2.9h6.6v2.2h-6.6v3.6h7.3v2.2L287,94.7L287,94.7z"/>
	<path class="st1" d="M301.7,94.7V81.5h2.7v5.2h5.2v-5.2h2.7v13.1h-2.7v-5.7h-5.2v5.7L301.7,94.7L301.7,94.7z"/>
	<path class="st1" d="M320.4,94.7V83.8h-3.9v-2.2h10.4v2.2H323v10.9H320.4z"/>
</g>
<polygon class="st0" points="131.2,31.3 122,31.3 112.5,47.8 103,31.3 93.8,31.3 107.9,55.7 97.7,73.5 106.8,73.5 "/>
<path class="st1" d="M310.4,38.1c7.9,0,14.3,6.4,14.3,14.3c0,7.9-6.4,14.3-14.3,14.3S296,60.3,296,52.4
	C296,44.5,302.5,38.1,310.4,38.1 M310.4,30.6c-12.1,0-21.8,9.8-21.8,21.8c0,12.1,9.8,21.8,21.8,21.8c12.1,0,21.8-9.8,21.8-21.8
	C332.2,40.3,322.4,30.6,310.4,30.6L310.4,30.6z"/>
<path class="st1" d="M259.1,48.8V56h17.6c-1.6,6.2-7.2,10.8-13.9,10.8c-7.9,0-14.3-6.4-14.3-14.3s6.4-14.3,14.3-14.3
	c5.3,0,9.9,2.9,12.4,7.2h8.2c-3-8.6-11.1-14.7-20.6-14.7c-12.1,0-21.8,9.8-21.8,21.8s9.8,21.8,21.8,21.8s21.8-9.8,21.8-21.8
	c0-1.2-0.1-2.4-0.3-3.6L259.1,48.8z"/>
<path class="st0" d="M144.5,56v-7.1h17.6c-1.6-6.2-7.2-10.8-13.9-10.8c-7.9,0-14.3,6.4-14.3,14.3s6.4,14.3,14.3,14.3
	c5.3,0,9.9-2.9,12.4-7.2h8.2c-3,8.6-11.1,14.7-20.6,14.7c-12.1,0-21.8-9.8-21.8-21.8s9.8-21.8,21.8-21.8S170,40.3,170,52.4
	c0,1.2-0.1,2.4-0.3,3.6L144.5,56z"/>
<g>
	<path class="st2" d="M79,73.4h-3.6v10.8l-15.6-9.1c-3.9,2-8.4,3.2-13.2,3.2c-15.9,0-28.8-12.9-28.8-28.9c0-16,12.9-28.9,28.8-28.9
		c15.7,0,28.4,12.6,28.7,28.3h0h8.5c-0.1-20.5-16.7-37.1-37.3-37.1c-20.6,0-37.3,16.7-37.3,37.3c0,20.6,16.7,37.3,37.3,37.3
		c4.1,0,8.1-0.7,11.8-1.9l25.5,16V73.4H79z"/>
	<g>
		<path class="st0" d="M79,72.3h-3.6V49.8h8.5H85l0-1.1c-0.1-21.1-17.3-38.2-38.4-38.2c-21.2,0-38.4,17.2-38.4,38.4
			c0,21.2,17.2,38.4,38.4,38.4c4,0,7.9-0.6,11.6-1.8l25,15.7l1.7,1.1v-2V73.4v-1.1h-1.1H79z M83.9,100.3l-25.5-16
			c-3.7,1.2-7.7,1.9-11.8,1.9c-20.6,0-37.3-16.7-37.3-37.3c0-20.6,16.7-37.3,37.3-37.3c20.5,0,37.2,16.6,37.3,37.1h-8.5h0
			c-0.3-15.7-13.1-28.3-28.7-28.3c-15.9,0-28.8,12.9-28.8,28.9c0,16,12.9,28.9,28.8,28.9c4.7,0,9.2-1.2,13.2-3.2l15.6,9.1V73.4H79
			h4.9V100.3z"/>
	</g>
	<path class="st1" d="M64.1,49.4c0,9.8-7.9,17.8-17.7,17.8c-9.8,0-17.7-8-17.7-17.8c0-9.8,7.9-17.8,17.7-17.8
		C56.2,31.6,64.1,39.5,64.1,49.4z"/>
</g>
</svg>
