<svg xmlns="http://www.w3.org/2000/svg" width="43.271" height="28.846" viewBox="0 0 43.271 28.846"><path d="M21.9,11.181a8.382,8.382,0,0,0-2.347.377,4.173,4.173,0,0,1-5.688,5.689,8.392,8.392,0,1,0,10.389-5.739A8.772,8.772,0,0,0,21.9,11.181ZM43.271,18.5A24.1,24.1,0,0,0,21.9,5.173,24.1,24.1,0,0,0,.523,18.5a2.413,2.413,0,0,0,0,2.191A24.1,24.1,0,0,0,21.9,34.019,24.1,24.1,0,0,0,43.271,20.692,2.44,2.44,0,0,0,43.271,18.5ZM21.9,30.417A20.442,20.442,0,0,1,4.024,19.6,20.443,20.443,0,0,1,21.9,8.778,20.449,20.449,0,0,1,39.771,19.6,20.442,20.442,0,0,1,21.9,30.417Z" transform="translate(-0.26 -5.173)" fill="#fff"/></svg>