<svg xmlns="http://www.w3.org/2000/svg" width="44.061" height="42.715" viewBox="0 0 44.061 42.715"><path d="M18.092,5.394a5.139,5.139,0,1,1-5.212,5.14A5.169,5.169,0,0,1,18.092,5.394Zm5.482,17.779c.572-1.139,1.114-2.169,1.615-3.256a24.8,24.8,0,0,0,2.447-8.534,10.4,10.4,0,0,0-.084-2.444,9.288,9.288,0,0,0-2.181-4.679A9.5,9.5,0,0,0,19.5,1c-.39-.06-.575-.054-1.158-.1C18.175.905,18,.9,17.833.9c-.192.012-.151,0-.226.007a9.425,9.425,0,0,0-6.226,2.7A9.254,9.254,0,0,0,8.493,9.843a13.949,13.949,0,0,0,.327,3.774,30.272,30.272,0,0,0,2.338,6.742c.443.934.922,1.675,1.421,2.814l.979,1.711a45.073,45.073,0,0,0,3.06,4.578c.468.65.956,1.253,1.437,1.9.028-.022.035.025.04.018a62.806,62.806,0,0,0,4.494-6.493Z" transform="translate(3.961 -0.898)" fill="#fff" fill-rule="evenodd"/><line x1="6.043" y2="16.536" transform="translate(26.641 24.471)" fill="#b1c802" stroke="#fff" stroke-miterlimit="10" stroke-width="1.655"/><path d="M2.666,23.143s3.448-2.812,10.782-.988,10.36,3.822,14.968,1.824" transform="translate(1.247 8.758)" fill="#fff" stroke="#fff" stroke-miterlimit="10" stroke-width="1.655"/><g transform="translate(0 22.759)"><path d="M37.013,19.827l3.2,13.11H3.85l3.2-13.11H37.013m.258-3.423H6.788a3.26,3.26,0,0,0-3,2.359L.067,34A1.822,1.822,0,0,0,1.921,36.36H42.14A1.822,1.822,0,0,0,43.994,34L40.276,18.764a3.258,3.258,0,0,0-3-2.36Z" transform="translate(0 -16.404)" fill="#fff"/></g></svg>