<svg xmlns:dc="http://purl.org/dc/elements/1.1/" xmlns:cc="http://creativecommons.org/ns#" xmlns:rdf="http://www.w3.org/1999/02/22-rdf-syntax-ns#" xmlns:svg="http://www.w3.org/2000/svg" xmlns="http://www.w3.org/2000/svg" xmlns:sodipodi="http://sodipodi.sourceforge.net/DTD/sodipodi-0.dtd" xmlns:inkscape="http://www.inkscape.org/namespaces/inkscape" viewBox="0 0 90 106.86667" xml:space="preserve" id="svg2" version="1.1" sodipodi:docname="seemee_logo_4c_wot.svg" inkscape:version="0.92.2 (5c3e80d, 2017-08-06)"><sodipodi:namedview pagecolor="#ffffff" bordercolor="#666666" borderopacity="1" objecttolerance="10" gridtolerance="10" guidetolerance="10" inkscape:pageopacity="0" inkscape:pageshadow="2" inkscape:window-width="1920" inkscape:window-height="1017" id="namedview16" showgrid="false" inkscape:zoom="2.227602" inkscape:cx="108.92458" inkscape:cy="61.287212" inkscape:window-x="-8" inkscape:window-y="-8" inkscape:window-maximized="1" inkscape:current-layer="svg2"/><metadata id="metadata8"><rdf:RDF><cc:Work rdf:about=""><dc:format>image/svg+xml</dc:format><dc:type rdf:resource="http://purl.org/dc/dcmitype/StillImage"/><dc:title/></cc:Work></rdf:RDF></metadata><defs id="defs6"/><path id="path14" style="fill:#ffffff;fill-opacity:1;fill-rule:nonzero;stroke:none;stroke-width:0.13333333" d="m 79.554665,44.757338 c -0.412934,-18.885466 -15.762,-34.069866 -34.644799,-34.069866 -19.1468,0 -34.66924,15.602667 -34.66924,34.848533 0,19.242133 15.52244,34.848932 34.66924,34.848932 5.721333,0 11.116133,-1.403733 15.872399,-3.8724 l 18.792266,11.0208 v -13 -29.775999 h -0.01987" inkscape:connector-curvature="0"/><path id="path16" style="fill:#3067ba;fill-opacity:1;fill-rule:nonzero;stroke:none;stroke-width:0.13333333" d="m 83.925465,74.533337 h -4.350934 v 13 l -18.792266,-11.0208 c -4.756266,2.468667 -10.151066,3.8724 -15.872399,3.8724 -19.1468,0 -34.66924,-15.606799 -34.66924,-34.848932 0,-19.245866 15.52244,-34.848533 34.66924,-34.848533 18.882799,0 34.231865,15.1844 34.644799,34.069866 h 0.01987 10.235333 C 89.702131,20.020272 69.641732,-0.00106066 44.909866,-0.00106066 20.106799,-0.00106066 0,20.127606 0,44.955205 c 0,24.825466 20.106799,44.960932 44.909866,44.960932 4.964133,0 9.734933,-0.820267 14.199466,-2.309867 l 30.705732,19.2604 V 74.533337 h -5.889599" inkscape:connector-curvature="0"/><path id="path18" style="fill:#99d420;fill-opacity:1;fill-rule:nonzero;stroke:none;stroke-width:0.13333333" d="m 65.907865,45.536005 c 0,11.841066 -9.551066,21.445199 -21.331333,21.445199 -11.783866,0 -21.334399,-9.604133 -21.334399,-21.445199 0,-11.843333 9.550533,-21.4448 21.334399,-21.4448 11.780267,0 21.331333,9.601467 21.331333,21.4448" inkscape:connector-curvature="0"/></svg>